<?xml version="1.0" encoding="utf-8"?>
<!-- Generator: Adobe Illustrator 20.1.0, SVG Export Plug-In . SVG Version: 6.00 Build 0)  -->
<svg version="1.1" id="Layer_1" xmlns="http://www.w3.org/2000/svg" xmlns:xlink="http://www.w3.org/1999/xlink" x="0px" y="0px"
	 viewBox="0 0 140 208" style="enable-background:new 0 0 140 208;" xml:space="preserve">
<style type="text/css">
	.st0{fill:#CCCCCC;}
	.st1{fill:none;stroke:#5A5A5A;stroke-width:0.25;stroke-miterlimit:10;}
	.st2{fill:#FF0000;}
</style>
<rect class="st0" width="140" height="208"/>
<circle class="st1" cx="70" cy="104" r="15"/>
<path class="st2" d="M70,88.3h-0.6l-1.5,0.3l-1.1,0.2l-1.2,0.4c-1,0.3-1.9,0.7-2.8,1.2c-1,0.6-2,1.3-2.9,2.1c-1,0.9-1.9,2-2.6,3.1
	c-0.8,1.2-1.4,2.5-1.8,3.9c-0.4,1.4-0.7,2.9-0.7,4.4c0.1,1.5,0.3,3,0.8,4.4c0.4,1.4,1,2.7,1.8,3.9c0.7,1.1,1.6,2.1,2.6,3
	c0.9,0.8,1.9,1.5,2.9,2.1l1.4,0.7l1.4,0.5l1.2,0.3L68,119l0,0l-1-0.2l-1.2-0.3l-1.3-0.5l-1.4-0.7c-1-0.6-2-1.2-2.9-2
	c-1-0.9-1.9-1.9-2.6-3c-0.8-1.2-1.4-2.5-1.8-3.8c-0.3-1.4-0.5-2.9-0.4-4.3c0-1.4,0.2-2.8,0.6-4.2c0.4-1.4,0.9-2.8,1.7-4
	c0.7-1.1,1.5-2.1,2.5-3c0.9-0.8,1.8-1.5,2.9-2l1.4-0.6l1.3-0.5l1.2-0.2h3.2c0.4-0.1,0.7-0.4,0.6-0.8C70.7,88.5,70.4,88.2,70,88.3
	L70,88.3z">
<animateTransform  accumulate="none" additive="replace" attributeName="transform" attributeType="XML" calcMode="linear" dur="2s" fill="remove" from="0 70 104" repeatCount="indefinite" restart="always" to="360 70 104" type="rotate">
		</animateTransform>
</path>
</svg>
