<svg id="Layer_1" data-name="Layer 1" xmlns="http://www.w3.org/2000/svg" viewBox="0 0 140 208">
  <defs><style>.cls-1{fill:#ccc;}.cls-2{fill:red;}</style></defs>
  <rect class="cls-1" width="140" height="208"/>
  <path class="cls-2" d="M70,88.3h-.6l-1.5.3-1.1.2-1.2.4a16.6,16.6,0,0,0-2.8,1.2,18.6,18.6,0,0,0-2.9,2.1,15.2,15.2,0,0,0-2.6,3.1,16.4,16.4,0,0,0-1.8,3.9,15.7,15.7,0,0,0-.7,4.4,17.6,17.6,0,0,0,.8,4.4,15.6,15.6,0,0,0,1.8,3.9,15,15,0,0,0,2.6,3,15.4,15.4,0,0,0,2.9,2.1l1.4.7,1.4.5,1.2.3,1.1.2h0l-1-.2-1.2-.3-1.3-.5-1.4-.7a15.2,15.2,0,0,1-2.9-2,14.7,14.7,0,0,1-2.6-3,15.7,15.7,0,0,1-1.8-3.8,15.4,15.4,0,0,1-.4-4.3,17.4,17.4,0,0,1,.6-4.2A14.9,14.9,0,0,1,57.7,96,14.6,14.6,0,0,1,60.2,93a12.9,12.9,0,0,1,2.9-2l1.4-.6,1.3-.5,1.2-.2h3.2a.7.7,0,1,0-.2-1.4Z">

    <animateTransform attributeName="transform"
    attributeType='XML'
    type='rotate'
    from='0 70 104'
    to='360 70 104'
    dur='2s'
    repeatCount='indefinite' />

  </path>
</svg>