<?xml version="1.0" encoding="utf-8"?>
<!-- Generator: Adobe Illustrator 20.1.0, SVG Export Plug-In . SVG Version: 6.00 Build 0)  -->
<svg version="1.1" id="Layer_1" xmlns="http://www.w3.org/2000/svg" xmlns:xlink="http://www.w3.org/1999/xlink" x="0px" y="0px"
	 viewBox="0 0 140 208" style="enable-background:new 0 0 140 208;" xml:space="preserve">
<style type="text/css">
	.st0{fill:#CCCCCC;}
	.st1{fill:#CCCCCC;stroke:#F2F2F2;stroke-width:0.4725;stroke-miterlimit:10;}
	.st2{fill:#F2F2F2;}
	.st3{fill:none;stroke:#FF0000;stroke-width:6.1195;stroke-miterlimit:10;}
	.st4{fill:#FFFFFF;}
</style>
<title>loading_image</title>
<rect class="st0" width="140" height="208"/>
<g>
	<rect x="53.5" y="101.9" class="st1" width="33" height="33"/>
	<g id="PL_Film">
		<rect x="55.9" y="104.4" class="st2" width="2.4" height="2.6"/>
		<path class="st2" d="M79.4,104.4H60.6v13h18.8V104.4z"/>
		<path class="st2" d="M79.4,119.5H60.6v13h18.8V119.5z"/>
		<rect x="55.9" y="109.5" class="st2" width="2.4" height="2.6"/>
		<rect x="55.9" y="114.6" class="st2" width="2.4" height="2.6"/>
		<rect x="55.9" y="119.7" class="st2" width="2.4" height="2.6"/>
		<rect x="55.9" y="124.9" class="st2" width="2.4" height="2.6"/>
		<rect x="55.9" y="130" class="st2" width="2.4" height="2.6"/>
		<rect x="81.8" y="104.4" class="st2" width="2.4" height="2.6"/>
		<rect x="81.8" y="109.5" class="st2" width="2.4" height="2.6"/>
		<rect x="81.8" y="114.6" class="st2" width="2.4" height="2.6"/>
		<rect x="81.8" y="119.7" class="st2" width="2.4" height="2.6"/>
		<rect x="81.8" y="124.9" class="st2" width="2.4" height="2.6"/>
		<rect x="81.8" y="130" class="st2" width="2.4" height="2.6"/>
	</g>
	<circle class="st3" cx="70" cy="118.4" r="27.7"/>
	<line class="st3" x1="50.4" y1="98.8" x2="89.6" y2="138"/>
</g>
<g>
	<g>
		<g>
			<path class="st4" d="M13.9,36.1V19.9H19l2.6,5c0.9,1.6,1.8,3.8,2.5,5.7h0.1c-0.2-2.1-0.3-4.4-0.3-6.8v-3.8h4v16.2h-4.6l-2.7-5.4
				c-0.9-1.7-2-3.9-2.7-5.9h-0.1c0.1,2.2,0.1,4.6,0.1,7.2v4H13.9z"/>
			<path class="st4" d="M42.6,30c0,4.3-3.1,6.3-6.4,6.3c-3.5,0-6.3-2.3-6.3-6.1c0-3.7,2.5-6.2,6.5-6.2C40.2,24,42.6,26.5,42.6,30z
				 M34.4,30.2c0,1.8,0.6,3.1,1.9,3.1c1.2,0,1.8-1.2,1.8-3.1c0-1.6-0.5-3.1-1.8-3.1C34.9,27,34.4,28.6,34.4,30.2z"/>
			<path class="st4" d="M63.3,30.3c0-1.8-0.1-4-0.1-6.5h-0.1c-0.5,2.1-1.2,4.6-1.7,6.3l-1.6,5.6h-3.4l-1.4-5.6
				c-0.4-1.8-0.9-4.2-1.3-6.4h0c-0.1,2.3-0.2,4.7-0.3,6.5l-0.2,5.8h-4l1-16.2h5.8l1.1,4.3c0.4,1.8,0.9,4,1.2,5.9h0.1
				c0.5-2,1-4.2,1.5-6l1.2-4.3h5.7l0.8,16.2h-4.2L63.3,30.3z"/>
			<path class="st4" d="M82.3,30c0,4.3-3.1,6.3-6.4,6.3c-3.5,0-6.3-2.3-6.3-6.1c0-3.7,2.5-6.2,6.5-6.2C79.8,24,82.3,26.5,82.3,30z
				 M74.1,30.2c0,1.8,0.6,3.1,1.9,3.1c1.2,0,1.8-1.2,1.8-3.1c0-1.6-0.5-3.1-1.8-3.1C74.6,27,74.1,28.6,74.1,30.2z"/>
			<path class="st4" d="M87.7,24.2l1.3,5c0.2,0.9,0.4,1.8,0.6,2.8h0.1c0.1-1,0.3-1.8,0.5-2.8l1.2-5h4.5l-4.3,11.8h-4.3L83,24.2H87.7
				z"/>
			<path class="st4" d="M101.7,21c0,1.2-0.9,2.1-2.2,2.1c-1.3,0-2.2-0.9-2.2-2.1c0-1.2,0.9-2,2.2-2S101.7,19.8,101.7,21z M97.3,36.1
				V24.2h4.3v11.8H97.3z"/>
			<path class="st4" d="M107.9,31.7c0.1,0.9,1.5,1.5,3,1.5c1.1,0,2.2-0.1,3.2-0.5l0.6,2.9c-1.4,0.6-3,0.8-4.4,0.8
				c-4.2,0-6.5-2.3-6.5-6c0-2.8,1.8-6.3,6.1-6.3c3.8,0,5.4,2.8,5.4,6c0,0.7-0.1,1.3-0.2,1.6H107.9z M111.3,28.7
				c0-0.7-0.3-1.9-1.7-1.9c-1.3,0-1.8,1.2-1.8,1.9H111.3z"/>
			<path class="st4" d="M117.4,32.4c0.7,0.4,2.2,0.9,3.3,0.9c0.9,0,1.3-0.2,1.3-0.6s-0.3-0.6-1.5-1c-2.6-0.8-3.5-2.2-3.5-3.6
				c0-2.4,2-4.1,5.1-4.1c1.5,0,2.8,0.3,3.5,0.7l-0.7,2.9c-0.6-0.3-1.7-0.6-2.6-0.6c-0.7,0-1.2,0.2-1.2,0.7c0,0.4,0.4,0.6,1.8,1.1
				c2.3,0.8,3.2,2,3.2,3.7c0,2.3-1.8,4-5.4,4c-1.6,0-3.1-0.4-4-0.8L117.4,32.4z"/>
		</g>
		<g>
			<path class="st4" d="M50.8,59.1c0-1.8-0.1-4-0.1-6.5h-0.1c-0.5,2.1-1.2,4.6-1.7,6.3l-1.6,5.6h-3.4l-1.4-5.6
				c-0.4-1.8-0.9-4.2-1.3-6.4h0c-0.1,2.3-0.2,4.7-0.3,6.5l-0.2,5.8h-4l1-16.2h5.8l1.1,4.3c0.4,1.8,0.9,4,1.2,5.9H46
				c0.5-2,1-4.2,1.5-6l1.2-4.3h5.7l0.8,16.2H51L50.8,59.1z"/>
			<path class="st4" d="M68.2,62c0,1.2,0,2.3,0.2,2.9h-3.9l-0.2-1h-0.1c-0.8,0.9-2,1.3-3.3,1.3c-2.4,0-3.9-1.8-3.9-3.7
				c0-3.2,2.8-4.6,6.8-4.6v-0.1c0-0.5-0.4-1-1.9-1c-1.2,0-2.6,0.4-3.3,0.9l-0.8-2.8c0.8-0.4,2.4-1.1,4.9-1.1c4.1,0,5.5,2.3,5.5,5.2
				V62z M64,59.5c-1.8,0-2.8,0.5-2.8,1.5c0,0.7,0.5,1.1,1.2,1.1c0.6,0,1.3-0.4,1.5-1.1c0-0.2,0-0.4,0-0.6V59.5z"/>
			<path class="st4" d="M75.4,49.7V53h2.4v3.2h-2.4v3.4c0,1.4,0.3,2,1.4,2c0.5,0,0.7,0,1-0.1v3.3c-0.5,0.2-1.5,0.3-2.6,0.3
				c-1.3,0-2.3-0.5-3-1.1c-0.7-0.7-1.1-1.9-1.1-3.7v-4.1h-1.5V53h1.5v-2.2L75.4,49.7z"/>
			<path class="st4" d="M88.8,64.6c-0.7,0.3-1.9,0.5-3.3,0.5c-3.9,0-6.4-2.3-6.4-6.1c0-3.4,2.3-6.3,6.9-6.3c0.9,0,1.9,0.1,2.7,0.4
				l-0.6,3.2c-0.4-0.2-1-0.3-1.8-0.3c-1.6,0-2.8,1.1-2.8,2.8c0,1.9,1.3,2.8,2.9,2.8c0.7,0,1.4-0.1,1.9-0.3L88.8,64.6z"/>
			<path class="st4" d="M90.6,47.8h4.3v6.5h0c0.4-0.5,0.9-0.9,1.4-1.1c0.5-0.3,1.2-0.4,1.8-0.4c2.7,0,4.1,1.9,4.1,5.2v6.8h-4.3v-6.4
				c0-1.4-0.5-2.2-1.5-2.2c-0.8,0-1.2,0.5-1.4,0.9c-0.1,0.2-0.1,0.5-0.1,0.7v7h-4.3V47.8z"/>
		</g>
	</g>
	<g>
		<path class="st4" d="M13.6,183.8v-6.5l-5.1-9.6h5l1.4,3.6c0.5,1.1,0.7,1.9,1.1,3h0c0.3-1,0.6-1.9,1-3l1.3-3.6h4.9l-5.3,9.5v6.7
			H13.6z"/>
		<path class="st4" d="M33.9,177.7c0,4.3-3.1,6.3-6.4,6.3c-3.5,0-6.3-2.3-6.3-6.1c0-3.7,2.5-6.2,6.5-6.2
			C31.4,171.7,33.9,174.2,33.9,177.7z M25.7,177.8c0,1.8,0.6,3.1,1.9,3.1c1.2,0,1.8-1.2,1.8-3.1c0-1.6-0.5-3.1-1.8-3.1
			C26.2,174.7,25.7,176.3,25.7,177.8z"/>
		<path class="st4" d="M47.6,179.7c0,1.7,0,3,0.1,4H44l-0.2-1.6h-0.1c-0.4,0.6-1.5,1.8-3.6,1.8c-2.6,0-4.2-1.7-4.2-5.1v-7h4.3v6.3
			c0,1.5,0.5,2.3,1.5,2.3c0.8,0,1.2-0.6,1.4-1c0.1-0.2,0.1-0.4,0.1-0.6v-7h4.3V179.7z"/>
		<path class="st4" d="M50.3,175.9c0-1.9,0-3-0.1-4h3.7l0.1,2.1h0.1c0.6-1.8,2.1-2.4,3.1-2.4c0.4,0,0.6,0,0.9,0.1v4.1
			c-0.3-0.1-0.6-0.1-1.1-0.1c-1.3,0-2.1,0.5-2.4,1.5c0,0.2-0.1,0.5-0.1,0.7v5.8h-4.3V175.9z"/>
		<path class="st4" d="M78.9,186.7c-2.4-0.7-4.2-1.4-6.5-2.4c-0.4-0.2-0.8-0.2-1.2-0.3c-3.6-0.3-7.1-2.9-7.1-8.2
			c0-4.7,3-8.5,8.1-8.5c5.2,0,7.8,3.9,7.8,8.2c0,3.5-1.6,6-3.5,7v0.1c1.1,0.3,2.3,0.6,3.5,0.9L78.9,186.7z M72.2,180.6
			c2.1,0,3.3-2,3.3-4.9c0-2.8-1.2-4.9-3.3-4.9c-2.1,0-3.4,2.1-3.4,4.9C68.8,178.6,70.1,180.6,72.2,180.6L72.2,180.6z"/>
		<path class="st4" d="M94,179.7c0,1.7,0,3,0.1,4h-3.7l-0.2-1.6h-0.1c-0.4,0.6-1.5,1.8-3.6,1.8c-2.6,0-4.2-1.7-4.2-5.1v-7h4.3v6.3
			c0,1.5,0.5,2.3,1.5,2.3c0.8,0,1.2-0.6,1.4-1c0.1-0.2,0.1-0.4,0.1-0.6v-7H94V179.7z"/>
		<path class="st4" d="M100.3,179.4c0.1,0.9,1.5,1.5,3,1.5c1.1,0,2.2-0.1,3.2-0.5l0.6,2.9c-1.4,0.6-3,0.8-4.4,0.8
			c-4.2,0-6.5-2.3-6.5-6c0-2.8,1.8-6.3,6.1-6.3c3.8,0,5.4,2.8,5.4,6c0,0.7-0.1,1.3-0.2,1.6H100.3z M103.7,176.4
			c0-0.7-0.3-1.9-1.7-1.9c-1.3,0-1.8,1.2-1.8,1.9H103.7z"/>
		<path class="st4" d="M109.7,175.9c0-1.9,0-3-0.1-4h3.7l0.1,2.1h0.1c0.6-1.8,2.1-2.4,3.1-2.4c0.4,0,0.6,0,0.9,0.1v4.1
			c-0.3-0.1-0.6-0.1-1.1-0.1c-1.3,0-2.1,0.5-2.4,1.5c0,0.2-0.1,0.5-0.1,0.7v5.8h-4.3V175.9z"/>
		<path class="st4" d="M123.3,171.9l1.4,5.3c0.2,0.6,0.4,1.5,0.5,2.1h0.1c0.1-0.6,0.3-1.5,0.4-2.1l1.1-5.3h4.6l-2.5,7.5
			c-1.8,5-2.9,6.8-4.2,7.9c-1.3,1.2-2.8,1.6-3.9,1.7l-0.9-3.6c0.4-0.1,0.9-0.2,1.5-0.5c0.6-0.2,1.1-0.7,1.4-1.1
			c0.1-0.2,0.2-0.4,0.2-0.5c0-0.1,0-0.3-0.2-0.6l-4.3-10.8H123.3z"/>
	</g>
</g>
</svg>
