<svg id="Layer_1" data-name="Layer 1" xmlns="http://www.w3.org/2000/svg" viewBox="0 0 60 19.7"><defs><style>.cls-1{fill:red;}</style></defs><title>logo</title><rect class="cls-1" x="0.1" y="0.1" width="59.7" height="19.46" rx="2.9" ry="2.9"/><path d="M21.3,3.2V19.1H17.7V8.3L16.3,19.1H13.7L12.2,8.6V19.1H8.6V3.2h5.3q.2,1.4.5,3.4l.6,4,.9-7.4h5.4Z" transform="translate(-1.5 -1.4)"/><path d="M34.6,3.2V19.1H31V8.3L29.6,19.1H27L25.5,8.6V19.1H21.9V3.2h5.3q.2,1.4.5,3.4l.6,4,1-7.4h5.4Z" transform="translate(-1.5 -1.4)"/><path d="M35.2,3.2h3.1a19.2,19.2,0,0,1,4,.3,3.1,3.1,0,0,1,1.6.9,2.9,2.9,0,0,1,.7,1.4,21.1,21.1,0,0,1,.1,3v5.6a12.9,12.9,0,0,1-.2,2.9,2.2,2.2,0,0,1-.7,1.1,2.9,2.9,0,0,1-1.2.6l-2.2.2H35.1V3.2Zm4.1,2.7V16.4a1.2,1.2,0,0,0,1.1-.4,5.2,5.2,0,0,0,.2-1.9V7.9a8.4,8.4,0,0,0-.1-1.4.7.7,0,0,0-.3-.4h-.9Z" transform="translate(-1.5 -1.4)"/><path d="M49.3,3.2V6.9a3.3,3.3,0,0,1,1.1-.8,3.1,3.1,0,0,1,1.3-.3l1.4.3a2,2,0,0,1,.9.7,2.2,2.2,0,0,1,.4.9,16.9,16.9,0,0,1,.1,1.9v5.9a8.8,8.8,0,0,1-.2,2.1,2.2,2.2,0,0,1-.9,1.2,2.8,2.8,0,0,1-1.7.5,2.8,2.8,0,0,1-1.3-.3,3.4,3.4,0,0,1-1.1-.9l-.2,1H45.3V3.2h4Zm1.2,6.6a4.2,4.2,0,0,0-.1-1.3.5.5,0,0,0-.5-.3.4.4,0,0,0-.5.3,4.9,4.9,0,0,0-.1,1.4v5.6a4.4,4.4,0,0,0,.1,1.3.5.5,0,0,0,.5.3.5.5,0,0,0,.5-.3,5.6,5.6,0,0,0,.1-1.5Z" transform="translate(-1.5 -1.4)"/><path d="M58.5,1.7a2.8,2.8,0,0,1,2.8,2.8V18.1a2.8,2.8,0,0,1-2.7,2.8H4.5a2.8,2.8,0,0,1-2.7-2.7V4.4A2.8,2.8,0,0,1,4.5,1.7h54m0-.2H4.5a3,3,0,0,0-3,3h0V18.1a3,3,0,0,0,3,3h54a3,3,0,0,0,3-3V4.4a3,3,0,0,0-3-3Z" transform="translate(-1.5 -1.4)"/></svg>