<svg id="Layer_1" data-name="Layer 1" xmlns="http://www.w3.org/2000/svg" viewBox="0 0 397.8 80.8"><defs><style>.cls-1{fill:#fff;}</style></defs><title>tmdb</title><path class="cls-1" d="M13,24.3V35h7.3v7.7H13V54.6c0,3.2,1.5,4.1,3.5,4.1a6.9,6.9,0,0,0,3.2-.9L21.8,64a16.5,16.5,0,0,1-8.3,2.2c-10,0-10.4-5.8-10.4-11.7V24.3ZM25.4,65.2V24.3h9.8V36.7a9.9,9.9,0,0,1,6.7-2.5c6.2,0,9.5,3.5,9.5,10.6V65.2H41.6V46c0-2.6-.5-4.4-2.7-4.4s-3.7,1.8-3.7,4.2V65.2ZM81.8,43.4c0,8.5-9.6,10.2-15.4,10.6.2,2.7,2.2,4.8,5.8,4.8a13.7,13.7,0,0,0,7.3-2.5l2.6,6.5a19.7,19.7,0,0,1-11.3,3.4C60.5,66.2,56.5,60,56.5,51s5.1-16.8,15.1-16.8c6.1,0,10.2,3,10.2,9.1ZM71,41.1c-2.9,0-4.9,2.9-5.1,6.9,3.2-.2,7.4-1.7,7.4-4.5A2.2,2.2,0,0,0,71.5,41H71ZM86.4,65.2V41.1L85.7,35h8.1l.6,3.2a9.3,9.3,0,0,1,8.1-4.1c3.4,0,6.2,1.2,7.8,3.9a9.3,9.3,0,0,1,8.1-3.9c5.8,0,9.3,3.2,9.3,10.4V65.2H118V46.3c0-2.6-.4-4.6-2.7-4.6s-3.2,1.8-3.2,4.3V65.2h-9.8V46.3c0-2.6-.2-4.6-2.6-4.6s-3.2,1.8-3.2,4.4V65.2Zm60.5-31c4.7,0,13.8,1.4,13.8,15.2,0,11.1-6.5,16.7-14.6,16.7s-13.6-5-13.6-15.8,8-16.1,14.4-16.1Zm3.6,16.1c0-6-1-9.1-4-9.1s-4,3.1-4,8,.5,9.7,4,9.7S150.5,56,150.5,50.3Zm39-15.3a51.4,51.4,0,0,1,2,13.5c0,11.4-5.2,17.4-14.9,17.4-7.6,0-11.2-3.5-11.2-10.7V35h9.9V54c0,2.8.3,4.3,2.5,4.3s4.2-4.7,4.2-9.5A62.1,62.1,0,0,0,180,35ZM202,21.5a4.9,4.9,0,0,1,5.2,4.6q0,.2,0,.3a5.2,5.2,0,0,1-10.4,0c0-2.8,2-4.8,5.2-4.8Zm-4.9,43.6V35H207V65.2h-9.9Zm40.2-21.8c0,8.5-9.6,10.2-15.4,10.6.2,2.7,2.2,4.8,5.8,4.8a13.7,13.7,0,0,0,7.3-2.5l2.6,6.5a19.6,19.6,0,0,1-11.3,3.4C216,66.1,212,59.9,212,50.9s5.1-16.8,15.1-16.8c6.2.1,10.3,3.1,10.3,9.2ZM226.5,41c-2.9,0-4.9,2.9-5.1,6.9,3.2-.2,7.4-1.7,7.4-4.5a2.2,2.2,0,0,0-2-2.4Zm31.4-6.6V24.3h9.8V58.8l.6,6.4h-8.2l-.5-2.8h-.4c-1.5,2.5-3.9,3.7-7.3,3.7-9.9,0-11.6-7.7-11.6-14.5,0-10.2,5.5-17.4,14.8-17.4a11,11,0,0,1,2.7.3Zm0,7.1a6.5,6.5,0,0,0-2.3-.4c-4.6,0-5.5,5.2-5.5,9.7s.9,8.2,4.1,8.2a3.5,3.5,0,0,0,3.7-3.2V41.6Zm16.4-17.3h9.9V35.6a11.5,11.5,0,0,1,5.6-1.4c7.3,0,11.8,4.8,11.8,14.7,0,11.5-5.4,17.3-15,17.3-4.5,0-9.8-1.1-12.4-2.5V24.3Zm9.8,34.5a8.2,8.2,0,0,0,2.9.6c3.8,0,4.7-3.6,4.7-9.2s-.8-9-4.6-9a2.8,2.8,0,0,0-3,2.6v15Zm26.1-1.9c3.3,0,5,1.8,5,4.6a4.4,4.4,0,0,1-4.1,4.7h-.7c-3.3,0-4.9-1.9-4.9-4.7a4.5,4.5,0,0,1,4.4-4.6Zm23.5-22.7c4.7,0,13.8,1.4,13.8,15.2,0,11.1-6.5,16.7-14.6,16.7s-13.6-5.1-13.6-15.8c-.1-12.2,7.9-16,14.3-16Zm3.6,16.1c0-6-1-9.1-4-9.1s-4,3.1-4,8,.5,9.7,4,9.7,3.9-2.8,3.9-8.5Zm25,14.9h-9.8V40.8l-.8-5.8h8l.8,4.2c1.6-3.7,4.5-5.1,7.1-5.1a11.5,11.5,0,0,1,4.9,1.1L371,43.4a9.2,9.2,0,0,0-4.2-1,4,4,0,0,0-4.3,4.3V65.2ZM376,72.2c0-4.3,2.3-7.4,6.2-10.2-4.8-.7-9-5.3-9-12.5,0-10.1,6.4-15.4,15.4-15.4a33,33,0,0,1,12,2.4V59.4c0,1.5-.1,5.2-.2,6.9-.6,9-5,14.5-13.9,14.5-7,0-10.6-3.3-10.6-8.5Zm14.9-30.8a9.1,9.1,0,0,0-2.4-.3c-4.1,0-5.5,4.1-5.5,8.3s.4,7.8,4.2,7.8c1.9,0,3.6-1.4,3.6-4.1V41.5Zm-3.4,32.3c3.1,0,3.5-3.1,3.5-8.5v-3c-3.6,2.1-6.2,5.3-6.2,8.5S385.8,73.7,387.4,73.7Z" transform="translate(-2.7 0)"/><path class="cls-1" d="M2.8,1a24.2,24.2,0,0,1,4-.3A6.6,6.6,0,0,1,11.3,2a4.3,4.3,0,0,1,1.4,3.4,4.8,4.8,0,0,1-1.2,3.5,6.7,6.7,0,0,1-5,1.8H4.8v6.5H2.7ZM4.9,8.8,6.6,9c2.5,0,4.1-1.2,4.1-3.5S9.2,2.3,6.9,2.3l-2,.2Z" transform="translate(-2.7 0)"/><path class="cls-1" d="M25.4,11.1c0,4.3-3,6.2-5.8,6.2a5.8,5.8,0,0,1-5.6-6c0-3.7,2.5-6.2,5.8-6.2S25.4,7.6,25.4,11.1Zm-9.2.1c0,2.5,1.5,4.5,3.5,4.5s3.5-1.9,3.5-4.5-1-4.5-3.5-4.5S16.2,9,16.2,11.2Z" transform="translate(-2.7 0)"/><path class="cls-1" d="M28.7,5.4l1.5,5.9.9,3.7h.1c.3-1.2.6-2.4,1-3.7l1.9-5.9h1.8l1.8,5.8a36.1,36.1,0,0,1,1,3.8h.1a35,35,0,0,1,.9-3.8l1.7-5.8h2.1L39.8,17H38l-1.8-5.5a38.8,38.8,0,0,1-1-3.8h0A34.3,34.3,0,0,1,34,11.5L32.1,17H30.3L26.5,5.4Z" transform="translate(-2.7 0)"/><path class="cls-1" d="M46.5,11.6a3.7,3.7,0,0,0,3.4,4h.6a7.6,7.6,0,0,0,3.2-.6l.4,1.5a9.4,9.4,0,0,1-3.9.7c-3.6,0-5.7-2.4-5.7-5.9S46.6,5,49.9,5s4.8,3.3,4.8,5.5a8,8,0,0,1-.1,1Zm6.2-1.5c0-1.3-.6-3.4-2.9-3.4s-3.1,2-3.2,3.4Z" transform="translate(-2.7 0)"/><path class="cls-1" d="M57.3,9c0-1.4,0-2.5-.1-3.6H59V7.7h.1a3.5,3.5,0,0,1,3.2-2.5H63v2h-.7a3,3,0,0,0-2.8,2.7,5.9,5.9,0,0,0-.1,1v6.2H57.2Z" transform="translate(-2.7 0)"/><path class="cls-1" d="M66.1,11.6a3.7,3.7,0,0,0,3.4,4h.6a7.6,7.6,0,0,0,3.2-.6l.4,1.5a9.4,9.4,0,0,1-3.9.7c-3.6,0-5.7-2.4-5.7-5.9S66.3,5,69.5,5s4.8,3.3,4.8,5.5a8,8,0,0,1-.1,1Zm6.2-1.5c0-1.3-.6-3.4-2.9-3.4s-3.1,2-3.2,3.4Z" transform="translate(-2.7 0)"/><path class="cls-1" d="M87,0V14a28.1,28.1,0,0,0,.1,3H85.3V15h0a4.3,4.3,0,0,1-4,2.3c-2.8,0-5-2.4-5-5.9s2.4-6.2,5.2-6.2A3.9,3.9,0,0,1,85,7h0V0ZM84.9,10.2a3.7,3.7,0,0,0-.1-.9,3.1,3.1,0,0,0-3-2.4c-2.2,0-3.5,1.9-3.5,4.5s1.2,4.3,3.4,4.3a3.2,3.2,0,0,0,3.1-2.5,3.7,3.7,0,0,0,.1-.9Z" transform="translate(-2.7 0)"/><path class="cls-1" d="M95.5,17c0-.8.1-2,.1-3V0h2.1V7.3h0a4.3,4.3,0,0,1,4-2.1c2.9,0,4.9,2.4,4.9,5.9s-2.6,6.2-5.2,6.2a4.1,4.1,0,0,1-3.9-2.2h-.1V17Zm2.2-4.7a3.9,3.9,0,0,0,.1.8,3.3,3.3,0,0,0,3.2,2.5c2.2,0,3.5-1.8,3.5-4.5s-1.2-4.3-3.5-4.3a3.4,3.4,0,0,0-3.2,2.6,4.1,4.1,0,0,0-.1.9Z" transform="translate(-2.7 0)"/><path class="cls-1" d="M109.8,5.4l2.5,6.9.7,2.4h0l.7-2.4L116,5.5h2.2l-2.9,8.2c-1.5,4-2.5,6-4,7.3a5.7,5.7,0,0,1-2.6,1.4l-.5-1.8a5.6,5.6,0,0,0,1.8-1,6.4,6.4,0,0,0,1.8-2.4l.2-.5a1.8,1.8,0,0,0-.1-.6L107.5,5.4Z" transform="translate(-2.7 0)"/></svg>